<?xml version="1.0" encoding="UTF-8"?>
<svg id="Layer_1" data-name="Layer 1" xmlns="http://www.w3.org/2000/svg" viewBox="0 0 1080 1080">
  <defs>
    <style>
      .cls-1 {
        fill: #fff;
      }
    </style>
  </defs>
  <rect width="1080" height="1080"/>
  <path class="cls-1" d="m652.5,690h37.5l-65-130h37.5l-20-40h-37.5l-65-130-65,130h-37.5l-20,40h37.5l-65,130h37.5l65-130h95l65,130Zm-140-170l27.5-55,27.5,55h-55Z"/>
  <g>
    <path class="cls-1" d="m277.5,540c0-144.97,117.53-262.5,262.5-262.5,65.29,0,125,23.84,170.93,63.29l26.58-26.58c-52.77-46.2-121.87-74.21-197.51-74.21-165.69,0-300,134.31-300,300s134.31,300,300,300c75.64,0,144.74-28.01,197.51-74.21l-26.58-26.58c-45.93,39.44-105.64,63.29-170.93,63.29-144.97,0-262.5-117.53-262.5-262.5Z"/>
    <path class="cls-1" d="m739.21,710.93l26.58,26.58c46.2-52.77,74.21-121.87,74.21-197.51s-28.01-144.74-74.21-197.51l-26.58,26.58c39.44,45.93,63.29,105.64,63.29,170.93s-23.84,125-63.29,170.93Z"/>
  </g>
</svg>